<svg xmlns="http://www.w3.org/2000/svg" width="70" height="70" viewBox="0 0 70 70" fill="none">
  <path d="M56.217 36.1671C56.0134 35.1246 55.4511 34.3952 54.3934 34.1156C53.9148 33.9925 53.4227 33.9292 52.9285 33.9271C50.4971 33.9271 48.0657 33.9271 45.6343 33.9271C45.2726 33.9283 44.9144 33.9995 44.5797 34.1368C43.6467 34.5198 43.1817 35.307 43.2424 36.398C43.2941 37.2642 43.7956 37.8113 44.7864 38.0879C45.4041 38.2359 46.0388 38.3013 46.6738 38.2824H50.7889C50.9044 38.2824 50.9956 38.2641 50.9956 38.4435C50.9956 39.8871 50.9956 41.3338 50.9956 42.7805C50.9999 42.8234 50.99 42.8665 50.9675 42.9032C50.945 42.94 50.9111 42.9684 50.871 42.9841C48.3271 44.3396 45.6556 45.148 42.7349 44.914C41.4729 44.8396 40.2444 44.479 39.1425 43.8594C37.3554 42.82 36.2431 41.2426 35.5896 39.3157C35.1292 37.8827 34.8954 36.3866 34.8967 34.8815C34.8255 33.0872 35.1042 31.2962 35.7173 29.6084C36.5743 27.3776 38.0393 25.7272 40.3126 24.8823C41.8825 24.3212 43.5735 24.188 45.2119 24.4963C46.7154 24.727 48.0703 25.5336 48.9897 26.7454C49.5124 27.4171 49.9865 28.1191 50.4485 28.8273C50.7465 29.2709 51.1687 29.6167 51.6622 29.8216C52.1558 30.0265 52.6988 30.0813 53.2233 29.9792C53.76 29.8835 54.2549 29.6266 54.642 29.2428C55.0291 28.8589 55.2901 28.3663 55.3903 27.8304C55.4742 27.2818 55.4156 26.7208 55.2201 26.2014C54.6355 24.5369 53.5194 23.1112 52.0441 22.144C49.9926 20.7064 47.6706 20.059 45.1997 19.9071C43.574 19.7992 41.9413 19.8879 40.3369 20.1715C38.2882 20.5082 36.3368 21.2848 34.6171 22.4479C34.2797 22.6789 33.9575 22.9372 33.6111 23.2168C33.6218 22.7168 33.4524 22.2296 33.1338 21.8441C32.8153 21.4586 32.3687 21.2004 31.8757 21.1167C31.5512 21.0458 31.22 21.0111 30.8879 21.0134H17.348C16.8904 21.0086 16.4334 21.0483 15.9834 21.1319C15.4561 21.2026 14.9644 21.4373 14.5777 21.8027C14.191 22.1681 13.929 22.6457 13.8286 23.1682C13.7211 23.6674 13.6711 24.1773 13.6797 24.6878L13.6979 46.3972C13.697 46.7802 13.7203 47.1629 13.7678 47.543C13.9562 48.9623 14.8346 49.9106 16.1992 50.0959C16.8643 50.2165 17.5504 50.0838 18.1225 49.7238C18.6945 49.3637 19.1111 48.8026 19.2901 48.1508C19.4345 47.6398 19.5041 47.1105 19.4968 46.5795C19.4968 43.5099 19.4907 40.4413 19.4785 37.3736C19.4785 37.2004 19.5242 37.1548 19.6974 37.1548C22.7873 37.1548 25.8772 37.1548 28.9671 37.1548C29.1191 37.1548 29.1647 37.1943 29.1829 37.3402C29.3253 38.4581 29.5871 39.5575 29.964 40.6196C31.1797 43.9627 33.3284 46.4975 36.5895 48.0201C38.485 48.8825 40.5321 49.3617 42.6133 49.4303C45.3879 49.5934 48.1654 49.1645 50.7616 48.1721C52.1627 47.6589 53.5046 46.9966 54.7642 46.1966C55.258 45.8887 55.6611 45.4552 55.9324 44.9404C56.2036 44.4257 56.3333 43.8481 56.3082 43.2668C56.3082 41.2811 56.3082 39.2965 56.3082 37.3129C56.316 36.9288 56.2854 36.545 56.217 36.1671ZM30.1585 28.1921C29.6172 29.5954 29.2745 31.0674 29.1403 32.5656C29.1403 32.7327 29.0856 32.8026 28.8942 32.7996C25.8549 32.7996 22.8086 32.7996 19.7551 32.7996C19.5637 32.7996 19.4938 32.7692 19.4938 32.5534C19.4938 30.28 19.4938 28.0077 19.4938 25.7364C19.4938 25.554 19.5211 25.4902 19.7278 25.4902C23.3627 25.4902 26.9987 25.4902 30.6356 25.4902H31.5809C31.0033 26.3324 30.5259 27.2392 30.1585 28.1921ZM35.003 1.32007e-07C28.0804 -0.000600971 21.3131 2.05168 15.557 5.8973C9.80078 9.74291 5.31426 15.2091 2.66482 21.6047C0.0153746 28.0002 -0.678005 35.0378 0.672381 41.8274C2.02277 48.617 5.35624 54.8537 10.2513 59.7487C15.1463 64.6437 21.383 67.9772 28.1726 69.3276C34.9622 70.678 41.9998 69.9846 48.3953 67.3352C54.7909 64.6857 60.2571 60.1992 64.1027 54.4431C67.9483 48.6869 70.0006 41.9196 70 34.997C69.9992 25.7154 66.3117 16.8143 59.7487 10.2513C53.1857 3.68823 44.2846 0.000806065 35.003 1.32007e-07ZM35.003 64.1525C29.2366 64.1525 23.5997 62.4425 18.8051 59.2389C14.0105 56.0352 10.2736 51.4818 8.06686 46.1543C5.86015 40.8268 5.28277 34.9646 6.40774 29.309C7.53271 23.6534 10.3095 18.4584 14.387 14.3809C18.4645 10.3034 23.6595 7.52662 29.3151 6.40165C34.9707 5.27668 40.8329 5.85406 46.1604 8.06077C51.4878 10.2675 56.0413 14.0044 59.245 18.799C62.4486 23.5936 64.1585 29.2305 64.1585 34.997C64.1585 42.7295 61.0868 50.1453 55.6191 55.613C50.1514 61.0807 42.7356 64.1525 35.003 64.1525Z" fill="#F5F5F5"/>
</svg>
